<svg width="80" height="80" fill="none" xmlns="http://www.w3.org/2000/svg"><circle opacity=".1" cx="40" cy="40" r="40" fill="url(#paint0_linear)"/><path fill-rule="evenodd" clip-rule="evenodd" d="M25 55h31.5a1.5 1.5 0 010 3H22V23.5a1.5 1.5 0 013 0V55zm18.002-32.992a3 3 0 013 3v27h-7.5v-27a3 3 0 013-3h1.5zM53.5 28.005a3 3 0 013 3v21H49v-21a3 3 0 013-3h1.5zm-18.002 8.999a3 3 0 00-3-3h-1.5a3 3 0 00-3 3v15h7.5v-15z" fill="#C82128"/><defs><linearGradient id="paint0_linear" x1="3.194" y1="31.077" x2="71.52" y2="73.401" gradientUnits="userSpaceOnUse"><stop stop-color="#D85D62"/><stop offset="1" stop-color="#C82128"/></linearGradient></defs></svg>