<svg width="56" height="54" fill="none" xmlns="http://www.w3.org/2000/svg"><path d="M11.956 20.3h4.095l-2.05-6.657-2.045 6.657z" fill="#C82128"/><path d="M19.6 0h-14A5.6 5.6 0 000 5.6v47.6l16.8-16.8h12.6L19.6 0zm-2.688 23.1h-5.817L9.8 27.3H7l5.6-18.2h2.8L21 27.3h-2.8l-1.288-4.2zM50.4 0h-28l9.8 36.4h18.2a5.6 5.6 0 005.6-5.6V5.6A5.6 5.6 0 0050.4 0zm-9.8 9.1h2.8v2.8h-2.8V9.1zM49 27.3a18.767 18.767 0 01-7.448-1.47A15.253 15.253 0 0135 27.3v-2.8a12.531 12.531 0 003.5-.49c-2.163-1.722-3.5-3.983-3.5-6.51h2.8c0 2.016 1.456 3.857 3.724 5.152A9.478 9.478 0 0046.2 14.7H35v-2.8h14v2.8a12.007 12.007 0 01-4.459 9.191c1.452.408 2.952.613 4.46.609v2.8z" fill="#C82128"/></svg>