<svg width="80" height="80" fill="none" xmlns="http://www.w3.org/2000/svg"><circle opacity=".1" cx="40" cy="40" r="40" fill="url(#paint0_linear)"/><path d="M53.537 36.282C53.537 28.947 47.591 23 40.255 23s-13.282 5.947-13.282 13.282c-5.764.262-10.224 5.147-9.962 10.91.262 5.764 5.147 10.224 10.91 9.962h8.54v-7.59h-4.915a1.898 1.898 0 01-1.329-3.244l10.038-10.038L50.293 46.32a1.898 1.898 0 01-1.329 3.245H44.05v7.59h8.539c5.763.261 10.648-4.199 10.91-9.962.262-5.764-4.198-10.649-9.962-10.91z" fill="#C82128"/><defs><linearGradient id="paint0_linear" x1="3.194" y1="31.077" x2="71.52" y2="73.401" gradientUnits="userSpaceOnUse"><stop stop-color="#D85D62"/><stop offset="1" stop-color="#C82128"/></linearGradient></defs></svg>