<svg width="80" height="80" fill="none" xmlns="http://www.w3.org/2000/svg"><circle opacity=".1" cx="40" cy="40" r="40" fill="url(#paint0_linear)"/><path d="M59.184 40.57a1.29 1.29 0 010-1.14l1.642-3.357a3.82 3.82 0 00-1.649-5.072l-3.3-1.752a1.29 1.29 0 01-.67-.921l-.646-3.681a3.82 3.82 0 00-4.315-3.135l-3.7.523a1.29 1.29 0 01-1.084-.352l-2.685-2.598a3.82 3.82 0 00-5.334 0l-2.685 2.598a1.29 1.29 0 01-1.084.353l-3.7-.524a3.82 3.82 0 00-4.315 3.135l-.645 3.68a1.29 1.29 0 01-.67.923L21.043 31a3.82 3.82 0 00-1.648 5.073l1.64 3.357a1.29 1.29 0 010 1.14l-1.64 3.356A3.82 3.82 0 0021.043 49l3.3 1.751c.357.189.6.525.67.922l.646 3.68a3.817 3.817 0 004.315 3.136l3.7-.524c.399-.056.794.072 1.084.352l2.685 2.599a3.823 3.823 0 005.334 0l2.685-2.598a1.29 1.29 0 011.084-.353l3.7.524a3.82 3.82 0 004.315-3.135l.646-3.68a1.29 1.29 0 01.67-.923l3.3-1.751a3.82 3.82 0 001.648-5.073l-1.64-3.357zm-24.15-11.99a4.658 4.658 0 014.653 4.653 4.658 4.658 0 01-4.653 4.653 4.658 4.658 0 01-4.652-4.653 4.658 4.658 0 014.652-4.653zm-2.401 20.692a1.265 1.265 0 01-1.794 0 1.269 1.269 0 010-1.795L47.587 30.73a1.269 1.269 0 011.794 1.794L32.633 49.272zm12.552 2.148a4.658 4.658 0 01-4.652-4.652 4.658 4.658 0 014.652-4.653 4.658 4.658 0 014.653 4.653 4.658 4.658 0 01-4.653 4.652z" fill="#C82128"/><path d="M45.185 44.653a2.117 2.117 0 00-2.115 2.115c0 1.166.949 2.114 2.115 2.114a2.117 2.117 0 002.115-2.114 2.117 2.117 0 00-2.115-2.115zM35.034 31.118a2.117 2.117 0 00-2.115 2.115c0 1.166.95 2.115 2.115 2.115a2.117 2.117 0 002.115-2.115 2.117 2.117 0 00-2.115-2.115z" fill="#C82128"/><defs><linearGradient id="paint0_linear" x1="3.194" y1="31.077" x2="71.52" y2="73.401" gradientUnits="userSpaceOnUse"><stop stop-color="#D85D62"/><stop offset="1" stop-color="#C82128"/></linearGradient></defs></svg>