<svg width="80" height="80" fill="none" xmlns="http://www.w3.org/2000/svg"><circle opacity=".1" cx="40" cy="40" r="40" fill="url(#paint0_linear)"/><path d="M52.783 46.132a9.803 9.803 0 01-7.935 4.049h-4.572a3.653 3.653 0 01-3.433-2.406 11.596 11.596 0 01-1.847-.73 12.435 12.435 0 01-3.448-2.553C24.943 45.943 20 51.828 20 58.87v.92a2.29 2.29 0 002.29 2.29h35.54a2.29 2.29 0 002.29-2.29v-.92c0-5.44-2.95-10.189-7.337-12.737z" fill="#C82128"/><path d="M29.112 39.768c.985 0 1.841-.545 2.285-1.35l.036.095.01.028c1.042 2.741 3.068 5.04 5.74 6.044a3.648 3.648 0 013.092-1.71h4.572c.456 0 .88-.129 1.252-.337.625-.35 1.187-1.236 1.477-1.705.465-.752.825-1.549 1.143-2.417.18.326.426.609.722.83v1.122a4.599 4.599 0 01-4.594 4.593h-4.572a1.565 1.565 0 000 3.13h4.572c4.259 0 7.724-3.465 7.724-7.723v-1.121a2.604 2.604 0 001.043-2.087v-6.529c0-.87-.427-1.64-1.083-2.114C52.022 22.08 46.623 17 40.059 17c-6.564 0-11.964 5.081-12.472 11.517a2.604 2.604 0 00-1.083 2.115v6.528a2.61 2.61 0 002.608 2.608zM40.06 20.13c4.86 0 8.867 3.713 9.336 8.451-.308.242-.56.552-.733.906-1.477-3.852-4.773-6.534-8.603-6.534-3.913 0-7.156 2.774-8.597 6.519a.71.71 0 00-.006.015 2.617 2.617 0 00-.733-.905c.469-4.739 4.477-8.452 9.336-8.452z" fill="#C82128"/><defs><linearGradient id="paint0_linear" x1="3.194" y1="31.077" x2="71.52" y2="73.401" gradientUnits="userSpaceOnUse"><stop stop-color="#D85D62"/><stop offset="1" stop-color="#C82128"/></linearGradient></defs></svg>