<svg width="44" height="44" fill="none" xmlns="http://www.w3.org/2000/svg"><path fill-rule="evenodd" clip-rule="evenodd" d="M32.998.81c.203-.49.68-.81 1.209-.81H44v9.822c0 .53-.319 1.01-.808 1.212a1.306 1.306 0 01-1.426-.284l-3.019-3.03-16.816 16.868L9.138 11.757 3.12 17.793a1.823 1.823 0 01-3.058-.822 1.837 1.837 0 01.473-1.77l8.603-8.628L21.93 19.404 36.163 5.13l-2.88-2.89a1.315 1.315 0 01-.285-1.43zM40.2 20.157h-3.642a3.66 3.66 0 00-2.59 1.076 3.678 3.678 0 00-1.072 2.597v16.49a3.667 3.667 0 003.662 3.673H40.2a3.667 3.667 0 003.662-3.673V23.83c0-.974-.386-1.909-1.073-2.597a3.656 3.656 0 00-2.589-1.076zm-36.538 1.84h3.642a3.667 3.667 0 013.661 3.672v14.658c0 .974-.385 1.908-1.072 2.597A3.656 3.656 0 017.303 44h-3.64a3.656 3.656 0 01-2.59-1.076A3.678 3.678 0 010 40.327V25.669a3.667 3.667 0 013.662-3.673zm16.448 7.327h3.642a3.66 3.66 0 012.59 1.076 3.679 3.679 0 011.072 2.597v7.326a3.668 3.668 0 01-3.662 3.672H20.11a3.668 3.668 0 01-3.662-3.672v-7.326c0-.974.386-1.908 1.073-2.597a3.656 3.656 0 012.59-1.076z" fill="#C82128"/></svg>