<svg width="34" height="34" fill="none" xmlns="http://www.w3.org/2000/svg"><circle cx="17" cy="17" r="16" fill="#fff" fill-opacity=".2" stroke="#212121"/><path fill-rule="evenodd" clip-rule="evenodd" d="M24 21.294v-8.589A2.708 2.708 0 0021.294 10h-8.589A2.708 2.708 0 0010 12.705v8.589A2.708 2.708 0 0012.705 24h8.59a2.708 2.708 0 002.704-2.706zM19.464 17A2.468 2.468 0 0117 19.463 2.465 2.465 0 0114.536 17c0-.537.175-1.032.466-1.436a2.463 2.463 0 011.999-1.028c.822 0 1.55.407 1.997 1.028.29.405.466.9.466 1.436zm2.916-3.013v-2.374l-.309.001-2.064.007.008 2.373 2.365-.008zM17 20.828A3.834 3.834 0 0020.829 17c0-.507-.103-.993-.285-1.436h2.09v5.731c0 .74-.602 1.34-1.34 1.34h-8.59c-.74 0-1.34-.6-1.34-1.34v-5.731h2.089c-.18.443-.282.929-.282 1.436A3.833 3.833 0 0017 20.83z" fill="#212121"/><mask id="a" maskUnits="userSpaceOnUse" x="10" y="10" width="14" height="14"><path fill-rule="evenodd" clip-rule="evenodd" d="M24 21.294v-8.589A2.708 2.708 0 0021.294 10h-8.589A2.708 2.708 0 0010 12.705v8.589A2.708 2.708 0 0012.705 24h8.59a2.708 2.708 0 002.704-2.706zM19.464 17A2.468 2.468 0 0117 19.463 2.465 2.465 0 0114.536 17c0-.537.175-1.032.466-1.436a2.463 2.463 0 011.999-1.028c.822 0 1.55.407 1.997 1.028.29.405.466.9.466 1.436zm2.916-3.013v-2.374l-.309.001-2.064.007.008 2.373 2.365-.008zM17 20.828A3.834 3.834 0 0020.829 17c0-.507-.103-.993-.285-1.436h2.09v5.731c0 .74-.602 1.34-1.34 1.34h-8.59c-.74 0-1.34-.6-1.34-1.34v-5.731h2.089c-.18.443-.282.929-.282 1.436A3.833 3.833 0 0017 20.83z" fill="#fff"/></mask><g mask="url(#a)"><path fill="#212121" d="M5 5h24v24H5z"/></g></svg>