<svg width="121" height="112" fill="none" xmlns="http://www.w3.org/2000/svg"><path d="M86.997 17.651a8.278 8.278 0 00-3.612-5.273.315.315 0 010-.53 8.278 8.278 0 003.612-5.273c.048-.234.388-.234.436 0a8.278 8.278 0 003.612 5.273.315.315 0 010 .53 8.278 8.278 0 00-3.612 5.273c-.048.234-.388.234-.436 0zm28.957-3.91a10.113 10.113 0 00-4.349-6.44.388.388 0 010-.646 10.113 10.113 0 004.349-6.44c.058-.285.466-.285.524 0a10.112 10.112 0 004.348 6.44.387.387 0 010 .647 10.112 10.112 0 00-4.348 6.439c-.058.286-.466.286-.524 0z" fill="#C82128"/><path fill-rule="evenodd" clip-rule="evenodd" d="M98.31 44.704a4 4 0 00-4 4v62.852h9.861a1.953 1.953 0 01-.058-.474V77.658l-.738.737a1.946 1.946 0 11-2.753-2.753l3.677-3.676c.47-.47 1.096-.73 1.761-.73.665 0 1.291.26 1.762.73l3.676 3.676a1.946 1.946 0 01-1.377 3.324c-.498 0-.997-.19-1.377-.57l-.737-.738v33.424c0 .163-.02.322-.058.474h9.773V48.704a4 4 0 00-4-4H98.311zM67.096 60.313a4 4 0 00-4 4v47.245h10.221a1.956 1.956 0 01-.058-.475v-24.03l-.737.737a1.947 1.947 0 01-2.754-2.754l3.677-3.677c.47-.47 1.096-.73 1.762-.73.665 0 1.29.26 1.761.73l3.677 3.677a1.947 1.947 0 01-2.754 2.754l-.738-.738v24.031c0 .164-.02.323-.058.475h9.412V64.313a4 4 0 00-4-4H67.096zM35.88 75.92a4 4 0 00-4 4v31.637h10.045V97.706l-.737.737a1.947 1.947 0 01-2.754-2.754l3.677-3.676c.47-.47 1.096-.73 1.761-.73.666 0 1.29.26 1.762.73l3.676 3.676a1.947 1.947 0 01-2.754 2.754l-.737-.737v13.851h9.473V79.92a4 4 0 00-4-4H35.881zM4.382 86.434a4 4 0 00-4 4v20.711h10.044v-7.554l-.737.737a1.948 1.948 0 01-2.754-2.753l3.677-3.677c.47-.47 1.096-.73 1.761-.73.666 0 1.291.26 1.762.73l3.676 3.677a1.947 1.947 0 01-2.753 2.754l-.738-.738v7.554h9.596V90.434a4 4 0 00-4-4H4.382z" fill="#C82128"/><path d="M97.063 20.23l-4.738 6.876a.99.99 0 00.053 1.196l13.581 16.435 13.581-16.435a.99.99 0 00.053-1.196l-4.738-6.875a1.025 1.025 0 00-.845-.441H97.908c-.338 0-.655.165-.845.44z" fill="#C82128"/></svg>