<svg width="34" height="34" fill="none" xmlns="http://www.w3.org/2000/svg"><circle cx="17" cy="17" r="16" stroke="#212121"/><path d="M7.242 17.167c1.637-.902 3.464-1.655 5.17-2.412 2.938-1.24 5.887-2.457 8.865-3.591.58-.193 1.62-.382 1.723.477-.056 1.216-.286 2.425-.444 3.634-.4 2.659-.863 5.309-1.314 7.959-.156.882-1.26 1.34-1.968.774-1.7-1.148-3.412-2.285-5.09-3.46-.55-.56-.04-1.362.45-1.76 1.4-1.381 2.885-2.554 4.212-4.005.358-.865-.7-.136-1.049.087-1.916 1.322-3.786 2.723-5.806 3.885-1.032.568-2.235.082-3.267-.235-.925-.383-2.28-.77-1.482-1.353z" fill="#212121"/></svg>