<svg width="41" height="44" fill="none" xmlns="http://www.w3.org/2000/svg"><path fill-rule="evenodd" clip-rule="evenodd" d="M15.332 2a2 2 0 012-2H39a2 2 0 012 2v40a2 2 0 01-2 2H17.332a2 2 0 01-2-2V2zM2 44a2 2 0 01-2-2V18.5a2 2 0 012-2h10.667a2 2 0 012 2V42a2 2 0 01-2 2H2zm7.167-22H5.5v3.667h3.667V22zM5.5 29.333h3.667V33H5.5v-3.667zm20.832 1.835h-5.5v-5.5h5.5v5.5zM20.832 22h5.5v-5.5h-5.5V22zm5.5-9.168h-5.5v-5.5h5.5v5.5zM30 31.168h5.5v-5.5H30v5.5zM35.5 22H30v-5.5h5.5V22zM30 12.832h5.5v-5.5H30v5.5z" fill="#C82128"/></svg>