<svg width="34" height="34" fill="none" xmlns="http://www.w3.org/2000/svg"><circle cx="17" cy="17" r="16" fill="#fff" fill-opacity=".2" stroke="#212121"/><path fill-rule="evenodd" clip-rule="evenodd" d="M23.508 11.493l-.038-.025c-.769-.732-1.674-1.079-2.716-1.03l-.037-.074.025-.012c.942-.211 1.5-.434 1.674-.682.05-.199-.012-.31-.223-.335-.471.062-.918.161-1.302.322.496-.322.682-.545.57-.657-.483.012-1.017.26-1.563.757.199-.348.286-.546.236-.571a3.602 3.602 0 00-.694.583c-.422.471-.757.905-1.017 1.302l-.013.025c-.657 1.079-1.128 2.158-1.401 3.262l-.1.087-.024.012a5.246 5.246 0 00-1.451-1.253c-.67-.446-1.464-.855-2.382-1.265a19.99 19.99 0 00-3.026-1.277c-.012 1.153.558 2.059 1.662 2.728v.013c-.384 0-.769.062-1.14.173.073 1.067.83 1.799 2.256 2.196l-.012.024a1.607 1.607 0 00-1.377.571c.472.918 1.303 1.352 2.506 1.327-.236.124-.422.248-.546.397a.84.84 0 00-.223.819c.26.47.719.682 1.401.644l.037.05-.012.025c-1.178 1.215-2.605 1.761-4.267 1.65l-.024.012C9.27 21.278 8.178 20.795 7 19.827c1.178 1.7 2.753 2.927 4.7 3.709 2.22.731 4.453.793 6.673.16h.037c2.158-.62 3.981-1.91 5.494-3.844.695-1.005 1.13-1.972 1.303-2.902 1.128.037 1.934-.285 2.443-.98l-.012-.025c-.385.137-1.117.1-2.196-.124v-.124c1.191-.136 1.898-.52 2.121-1.153-.83.322-1.65.335-2.455.025-.15-1.117-.683-2.146-1.6-3.076z" fill="#212121"/><mask id="a" maskUnits="userSpaceOnUse" x="7" y="9" width="21" height="16"><path fill-rule="evenodd" clip-rule="evenodd" d="M23.508 11.493l-.038-.025c-.769-.732-1.674-1.079-2.716-1.03l-.037-.074.025-.012c.942-.211 1.5-.434 1.674-.682.05-.199-.012-.31-.223-.335-.471.062-.918.161-1.302.322.496-.322.682-.545.57-.657-.483.012-1.017.26-1.563.757.199-.348.286-.546.236-.571a3.602 3.602 0 00-.694.583c-.422.471-.757.905-1.017 1.302l-.013.025c-.657 1.079-1.128 2.158-1.401 3.262l-.1.087-.024.012a5.246 5.246 0 00-1.451-1.253c-.67-.446-1.464-.855-2.382-1.265a19.99 19.99 0 00-3.026-1.277c-.012 1.153.558 2.059 1.662 2.728v.013c-.384 0-.769.062-1.14.173.073 1.067.83 1.799 2.256 2.196l-.012.024a1.607 1.607 0 00-1.377.571c.472.918 1.303 1.352 2.506 1.327-.236.124-.422.248-.546.397a.84.84 0 00-.223.819c.26.47.719.682 1.401.644l.037.05-.012.025c-1.178 1.215-2.605 1.761-4.267 1.65l-.024.012C9.27 21.278 8.178 20.795 7 19.827c1.178 1.7 2.753 2.927 4.7 3.709 2.22.731 4.453.793 6.673.16h.037c2.158-.62 3.981-1.91 5.494-3.844.695-1.005 1.13-1.972 1.303-2.902 1.128.037 1.934-.285 2.443-.98l-.012-.025c-.385.137-1.117.1-2.196-.124v-.124c1.191-.136 1.898-.52 2.121-1.153-.83.322-1.65.335-2.455.025-.15-1.117-.683-2.146-1.6-3.076z" fill="#fff"/></mask><g mask="url(#a)"><path fill="#212121" d="M5 5h24v24H5z"/></g></svg>