<svg width="100" height="100" fill="none" xmlns="http://www.w3.org/2000/svg"><path fill-rule="evenodd" clip-rule="evenodd" d="M68.933 50.8a1 1 0 000-1.6L41.6 28.7a1 1 0 00-1.6.8v41a1 1 0 001.6.8l27.333-20.5zM0 50c0 27.6 22.4 50 50 50s50-22.4 50-50S77.6 0 50 0 0 22.4 0 50zm10 0c0-22.05 17.95-40 40-40s40 17.95 40 40-17.95 40-40 40-40-17.95-40-40z" fill="#fff"/><mask id="a" maskUnits="userSpaceOnUse" x="0" y="0" width="100" height="100"><path fill-rule="evenodd" clip-rule="evenodd" d="M68.933 50.8a1 1 0 000-1.6L41.6 28.7a1 1 0 00-1.6.8v41a1 1 0 001.6.8l27.333-20.5zM0 50c0 27.6 22.4 50 50 50s50-22.4 50-50S77.6 0 50 0 0 22.4 0 50zm10 0c0-22.05 17.95-40 40-40s40 17.95 40 40-17.95 40-40 40-40-17.95-40-40z" fill="#fff"/></mask><g mask="url(#a)"><path fill="#fff" d="M-10-10h120v120H-10z"/></g></svg>